<svg width="64" height="63" viewBox="0 0 64 63" fill="none" xmlns="http://www.w3.org/2000/svg">
<g clip-path="url(#clip0_1_3)">
<path fill-rule="evenodd" clip-rule="evenodd" d="M32 0.500001C24.3807 0.474152 17.0022 3.16782 11.1917 8.09651C5.38119 13.0252 1.51996 19.8654 0.30255 27.3869C-0.914863 34.9083 0.591434 42.6173 4.55051 49.1273C8.50958 55.6373 14.6616 60.521 21.9 62.9C23.5 63.2 24.1 62.2 24.1 61.4V56C15.2 57.9 13.3 51.7 13.3 51.7C11.8 48 9.7 47 9.7 47C6.8 45 9.9 45.1 9.9 45.1C13.1 45.3 14.8 48.4 14.8 48.4C17.7 53.3 22.3 51.9 24.1 51.1C24.246 49.4776 24.9533 47.957 26.1 46.8C19 46 11.5 43.2 11.5 31C11.5 27.5 12.7 24.7 14.8 22.4C13.8589 19.6251 13.9656 16.6017 15.1 13.9C15.1 13.9 17.8 13 23.9 17.2C29.1408 15.7953 34.6592 15.7953 39.9 17.2C46 13.1 48.7 13.9 48.7 13.9C49.8344 16.6017 49.9411 19.6251 49 22.4C51.1 24.6 52.3 27.5 52.3 31C52.3 43.3 44.8 46 37.7 46.8C38.8 47.8 39.9 49.7 39.9 52.7V61.5C39.9 62.4 40.5 63.4 42.1 63C48.4655 60.8195 53.9942 56.7114 57.9186 51.2458C61.843 45.7803 63.9685 39.2285 64 32.5C64 24.0131 60.6286 15.8737 54.6274 9.87258C48.6263 3.87142 40.4869 0.500001 32 0.500001Z" fill="white"/>
</g>
<defs>
<clipPath id="clip0_1_3">
<rect width="64" height="62.4" fill="white" transform="translate(0 0.5)"/>
</clipPath>
</defs>
</svg>
